<svg id="Слой_1" data-name="Слой 1" xmlns="http://www.w3.org/2000/svg" viewBox="0 0 744.98 902.12"><defs><style>.cls-1{fill:#3e0a49;}.cls-2{fill:#a186a8;}.cls-3{fill:#fff;}.cls-4{fill:#471760;}.cls-5{fill:#7f3587;}.cls-6{fill:#56050c;}.cls-7{fill:#1f1f1f;}.cls-8{fill:#404040;}</style></defs><path id="силуэт_головы" data-name="силуэт головы" class="cls-1" d="M85,210c-9,3.81-22.47-19-46-40-33-29.39-74.32-45.09-79-39-3.74,4.88,18.5,20.46,45,61,26.59,40.69,18.73,47.24,45,86,21.84,32.22,37,42.06,33,56-5.86,20.35-44.4,18-46,33-2.7,25.37,80.74,42.29,80,71-.7,27.05-75.36,35.44-75,59,.32,21.4,62,21.78,125,77,12.54,11,29.94,26.5,45,52s14.88,39.17,33,102c19.73,68.42,28.37,81.36,42,87,15.2,6.28,34.61,2.66,47-7,17.16-13.39,13.2-32.42,23-72,5.87-23.7,5.93-11.42,37-90,14.14-35.76,20.47-54.37,39-76,6.57-7.67,13.06-15.12,24-22,20.31-12.76,33.33-9.31,63-18,16.12-4.72,51-17.09,50-27-.83-8-24.16-7.28-58-28-20.2-12.37-21.15-18.29-21-21,.73-13.18,31.29-19.27,30-29-.77-5.8-11.89-5.73-13-11-2.87-13.54,66.22-34.85,64-46-1.86-9.33-51.41-.25-57-15-4.63-12.21,26.91-24.86,54-66,18.63-28.29,11.34-33.89,32-72,26.52-48.92,53.77-67.8,48-76-5.62-8-37.07,2-61,16-44.28,26-56.81,62.44-65,59-6.94-2.91,3.28-41.65,24-119,10.54-39.33,17.23-61.71,35-68,9.14-3.24,20-1.78,42-10,10.13-3.78,15.27-5.76,19-10,9.64-11,2.61-21.87,12-40,4.84-9.34,13.51-19.57,19-18,4.57,1.3,4.82,10.17,6,10,2-.28,8.4-26.52-7-38-9.72-7.24-25.1-6.34-33,1-9.33,8.67-1.86,20.38-11,33-10.48,14.47-31.83,15-33,15-23,.24-27-18.9-52-24-26.87-5.49-50.66,10.88-55,14-10.13,7.29-14.24,14.33-35,57-15.63,32.13-23.68,48.72-35,74-21.89,48.91-24.6,59.15-26,65-6.62,27.57-5.21,44.39-10,45-6,.76-17.91-24.21-19-51-1.76-43.4,25.7-72.67,21-76-4.52-3.2-34.95,20.32-50,54-18.06,40.42-20,49-20,49-1.54,6.81-3,15.32-7,16-4.18.71-8.94-7.38-15-19-11.91-22.82-19.05-40.46-21-45-15.31-35.71-50.63-57.51-55-54-4,3.21,19.5,26.24,25,67,3.79,28.07-1.81,58.25-9,59-6.78.71-15.94-29.52-34-90-16.25-54.44-18-67.49-31-95-14.66-31.09-24.23-50.66-47-63-5.34-2.89-35.72-18.57-65-8C39.68-49.11,37-39.84,21-39c-11,.58-28.26-2.87-38-15-6.51-8.11-5-14.21-12-18-7.57-4.07-18.35-1.86-25,4-6.18,5.44-9.79,14.91-7,18,2.15,2.39,6.39-.94,11,1,6.56,2.77,6.2,13,9,24,.42,1.64,7.06,26.54,26,39,4.8,3.16,12.26,4.68,27,8,19.54,4.41,20.84,2.42,27,5,16.13,6.75,22.12,26.59,30,54,8.93,31.08,2.44,28.29,11,56,5.74,18.58,12.72,33,11,55C90.37,200,89.66,208,85,210Z" transform="translate(61.95 83.99)"/><path id="лоб" class="cls-2" d="M221,350c-20.05-7.51-27.44-26-45.6-60.83-6.24-11.94-15.76-29.65-28.4-51.17,0,0-39.12-81.78-47-238,0-.49-.56-11.76,1-12,3.76-.57,10,64.46,41,137,7.09,16.59,20.35,45,46,73,23.88,26.1,42.79,34.72,60,35,5.81.09,11.87.11,16-4,15.22-15.12-14.91-67-11-69,3.7-1.93,22.82,48.59,48,49,26.07.43,43.92-53.07,52-50,3.62,1.37-15.34,29.61-6,58,1.46,4.43,5.84,17.74,13,20C395.07,248.08,489.76-7.85,515,0c16.76,5.21-3.6,124.72-42,230-15.89,43.57-51.6,141.48-85,138-37.66-3.92-46.7-134.11-74-133-25.27,1-33.28,113.24-76,118C231.07,353.77,225,351.52,221,350Z" transform="translate(61.95 83.99)"/><g id="нёбо"><path d="M252.09,566.43c-4.26-19.36-1.26-71.35,1-86.25,9.58-62.14,7-25.31,11-30.09,20.14-24.15,72.43-26.49,93.39-2.61,13.41,15.28,11.24,38.18,8.87,63.13-2.24,23.53-7.87,28.74-12,59.48-2.58,19.16-.58,18.61-2.61,47.48-3.54,50.39-9.16,45.54-11.48,87.13-.83,14.84-3.72,27.1-9.51,51.62-1.58,6.69-3.41,13.8-9.61,17.86-8.42,5.5-20.95,2.8-28.88-2.7C284,765.77,281,757.22,278.7,750.09c-11.34-35.16-13.05-56.87-13.05-56.87-4.73-60.31-7.82-78.52-9.39-105.92C256,582.57,254.08,575.52,252.09,566.43Z" transform="translate(61.95 83.99)"/></g><path id="Зубы" class="cls-3" d="M233.57,439.65c-2.41,2.92-1.43,7.56-1.31,8.09.62,2.73,2.6,6,3.39,5.74a.41.41,0,0,0,.23-.22c1-1.78.29-4.74.29-4.74-.87-3.93-.17-7.54,0-7.56.36,0,1.64,14.37,2.87,14.34s1.91-15.41,2.35-15.39-.43,16.83.78,17,4.34-18.06,4.7-18-3.62,19.75-1.57,20.35c.95.27,3-3.52,4.18-6.79,2.58-7.32,2.05-13.55,1.1-14.32a.08.08,0,0,0-.06,0c-.82,0-2.45,13.06-.26,26.08,1,6,1.93,6.5,2.35,6.53,1.12.05,2.31-3.28,3.95-10.19.26-1.1.54-2.34.54-2.34s.3-1.32.58-2.64c.62-3,3.43-20.81,3.28-20.83a104.08,104.08,0,0,0-2.87,23.87c-.15,12.48,1.94,24.1,3.06,24.06.54,0,.48-2.65,1.57-7.7,1.37-6.32,4.76-17.47,8.67-17.47,2.06,0,2.92,3.08,4.83,2.67s2.74-3.69,3.24-5.56c1-3.75.54-6.47,1.06-6.57.89-.16,1.84,7.79,4.7,8.22s4.88-7,8.21-6.65c3,.27,3.66,6.27,6.27,6.26s3.5-6.18,6.26-6.26,3.82,5.88,6.65,5.86,4.07-6.38,6.65-6.26,3.3,6.9,5.87,7.05c2.86.16,4.68-8.1,6.65-7.83,2.47.34,2,13.48,3.92,13.7s3.51-11.74,5.87-11.74c4,0,6.13,33.72,8.6,33.65s3.06-33.24,5.09-33.26c1.62,0,2.76,21.16,4.31,21.13s2.09-23.08,3.52-23.09c1.06,0,1.54,12.9,2.74,12.92,1,0,1.21-14.45,2.34-14.48s1.9,12.17,3.13,12.13c.46,0,.76-1.68,1-3.24,1-5.42.37-9.17.92-9.28.75-.16,2.18,6.76,3.52,6.65.67-.06.91-1.82,2-8.61,1-6.59,1.34-8.41.39-9-1.48-.92-3.92,2.53-6.65,1.56-2.19-.77-2.57-3.66-3.91-3.52s-1.38,2.92-2.74,3.13c-1.69.27-2.95-3.75-4.7-3.52-1.4.19-1.28,2.84-3.13,3.52-2.09.77-5.27-1.46-5.09-2.74.15-1,2.46-.85,2.74-1.95.49-1.92-5.46-6.57-9-5.09-2.79,1.17-2.39,5.46-4.69,5.87s-3.38-3.73-6.66-3.91-4.28,3.54-7,3.13c-3.06-.46-4-5.4-5.87-5.09-1.56.26-1.29,3.73-3.13,4.31-2.37.74-4.42-4.54-7.83-4.31-3.19.22-4.32,5.07-6.65,4.7s-2.26-4.83-4.3-5.09c-2.41-.31-4,5.67-6.65,5.48-2.42-.18-3.21-5.22-5.09-5.09s-2.26,5.66-4.31,5.87-3.16-5.37-5.86-5.48-4.07,5.68-6.66,5.48-3.27-6.23-5.87-6.26c-1.55,0-1.62,2.13-4.3,3.13s-4.09-.41-5.87.78c-1.38.93-1.25,2.28-2,3.52C250.94,439.57,238.13,434.13,233.57,439.65Z" transform="translate(61.95 83.99)"/><path id="скула" class="cls-2" d="M113,328.65c-4.72,8.93,102.58,81.84,109.18,74,3.74-4.48-22.59-37.87-58.7-57.52C144.19,334.56,115.33,324.33,113,328.65Z" transform="translate(61.95 83.99)"/><path id="скула-2" data-name="скула" class="cls-2" d="M498.53,344.24c4.86,7.88-105.41,72.21-112.19,65.26-3.85-3.95,23.22-33.42,60.32-50.76C466.53,349.46,496.18,340.42,498.53,344.24Z" transform="translate(61.95 83.99)"/><path id="Низ_зубы" data-name="Низ зубы" class="cls-3" d="M249.22,577.13c-1.71,1.38-3.75,3.51-3.92,6.26-.39,6.67,10.64,11.29,9.4,14.87-1,2.73-7.89,1.48-8.61,3.91-1.05,3.55,12.7,9.51,11.74,12.53-.85,2.62-11.81-.18-13.31,3.13-1.9,4.22,13.73,13.73,11.74,18-1.26,2.7-8.38.67-9.39,3.13-1.67,4.06,16.51,12.86,14.87,18.78-1.15,4.15-11,3.3-11.74,7-.95,4.9,15.13,10.55,14.09,14.87-.78,3.21-10.19,2.25-11,5.48-1,4.25,14.34,10,13.3,14.09-.77,3-10,2.57-10.17,4.69-.19,2.3,10.64,2.78,13.31,9.39,1,2.41.9,5.74-.79,7.83-3.32,4.12-11.34,1.51-11.74,3.13,0,0-.3,1.24,13.31,7.83h0c-9.48,11.64-8.61,13.3-8.61,13.3,1.52,2.91,10.53-.5,12.52,3.13,1,1.86-.43,4.44-.65,4.83-3.39,6-13.58,4.08-14.22,7.17-.46,2.22,4.16,6.32,8.61,6.13,5.28-.22,7.84-6.35,10.7-5.22,1.56.63,2.45,3.14,1.95,4.83-.56,1.91-2.58,1.73-5.48,4.57-2.36,2.31-1.76,3.16-3.39,4.17-3.58,2.22-7.9-1-9,.52-.93,1.29,1.08,5.1,4.18,6.91s6.1,1.15,8.74.66a22.83,22.83,0,0,0,10.56-5.22c2.57-2.22,3.95-4.41,4.31-4.17s-.37,2.53-1.83,4.43c-3.7,4.82-10,4.17-10.31,6.52-.15,1.39,1.93,2.66,3.14,3.39,2.56,1.57,6.41,2.37,9.26,1.05,5.76-2.68,6.73-13.77,6.13-14s-6.43,10.11-3.26,14.35c2.14,2.87,8.53,3.11,11.47.26,4.13-4,1.58-14.09.79-14.09s-3.34,10.75.91,14.48c3.58,3.14,12,1.37,13.56-2.48,1.85-4.59-6-12.6-6.52-12.26s2.58,9.62,9.13,12c4.68,1.7,10.86-.22,11.35-2.74.86-4.42-15.62-12-16-11.35s8.61,9.83,19.17,9.79c8.42,0,15.47-6,15-7.31-.35-1-4.84,1-11.74-.65-1.16-.28-8.79-2.08-9.13-5.74-.16-1.75,1.38-3.63,1.83-4.17s1.25-1.53,2.09-1.44,1.17,1,1.56,1.57c1.81,2.67,6.4,2.61,7,2.61,4.95-.06,9.71-4.41,9.13-6.53-.33-1.25-2.3-.77-6.26-3a20.65,20.65,0,0,1-5.74-4.69c-2.46-3-3.85-6.62-3.26-7s1.57,1.65,4.31,2.73,6.84,1,8.74-1.17c.83-1,1.48-2.58.91-3.52-.48-.78-1.64-.85-2.22-.91a14.76,14.76,0,0,1-9.52-5.74c-2.36-3.6-1.24-9.16.39-9.66,1.07-.32,1.71,1.71,3.78,2,3.28.4,7.11-4,6.4-5.61-.25-.55-.85-.44-2.61-1-1.45-.5-4.66-1.59-6.13-4-1.06-1.76-1.22-4.22-.39-4.7s2.16,1.86,4.3,2c4.09.18,9.2-8.1,7.17-11.22a4.59,4.59,0,0,0-2.74-1.57c-3.23-.89-5,1-6.26,0s-.92-4.86.92-6c1.26-.77,2.47.13,4,.13,5.74,0,11.8-12,9.65-14.08s-10.58,5.74-13.17,3.26c-1.46-1.4-.63-5.66,1.17-6.39,1-.4,1.71.42,2.87.65,5.09,1,13.56-10.39,12-17.87-.1-.47-.66-3.19-1.95-3.39-.65-.11-1.06.49-2.35,1.3a18.64,18.64,0,0,1-3.78,1.57c-3.08,1.06-4.61,1.6-5.09,1.17-1-.91,0-4.75,2.48-7.17s4.71-1.62,7.43-3.26c6.47-3.92,7-16.72,4.83-17.61-.55-.23-1,.43-3.13,1.95-2.51,1.81-8.9,6-10.31,4.7-1.13-1,.65-5.85,3.92-9.13,2.59-2.6,4.1-2.2,7.17-4.57,4.93-3.8,7.92-10.15,6.52-11.73-1.62-1.83-8.42,3.49-11.22.91a3.55,3.55,0,0,1-.65-4c.84-1.41,2.81-1.06,5.87-1.7,1.78-.37,7.77-1.62,9-5,.71-1.93-.9-2.57-2.22-8.87-.66-3.16-.5-4.19-1.3-4.56-2.33-1.08-6.57,6.42-9.39,5.35-1.29-.49-2.11-2.7-1.7-4.44,1.13-4.77,11.24-4.87,11.35-7.82.06-1.55-2.69-1.65-6-5.22s-3.62-7-5.22-6.92c-1.79.08-3,4.26-3.26,5.22a18.32,18.32,0,0,0-.52,7.57c1.4,8.64-6.06,45.68-10.3,77.74-.13.95-1.91,18.42-5.48,53.34-3.08,30.15-4.32,42.47-14,48.53-7.81,4.9-18.87,4.3-26.61,0-11.26-6.26-13.59-19.31-18.39-44.74-18.75-99.37-22.43-108.52-17.87-122,.06-.18,6.21-18.3.78-22.43a13.06,13.06,0,0,0-6-2.22A12.08,12.08,0,0,0,249.22,577.13Z" transform="translate(61.95 83.99)"/><g id="Слой_2" data-name="Слой 2"><path class="cls-4" d="M220.72,396.24c8.2-4,11.48-20.93,7.37-32.76-3.7-10.62-13-16.18-15.94-18-8.79-5.58-21.35-16.81-79.54-126-28.3-53.09-42.23-82.14-46.18-80.61-6.44,2.51,25,82.4,8.61,91.56-10.32,5.77-32.12-20.59-36-17.21-5.39,4.7,33.26,58.84,79.83,112.69C204.16,401.43,217.18,398,220.72,396.24Z" transform="translate(61.95 83.99)"/><path class="cls-4" d="M394.62,394.94c-7.76-3.95-10.86-20.72-7-32.43,3.49-10.51,12.3-16,15.07-17.85C411,339.14,422.9,328,477.9,220c26.74-52.55,39.91-81.31,43.64-79.79,6.09,2.48-23.65,81.56-8.14,90.63,9.76,5.71,30.36-20.39,34-17C552.53,218.43,516,272,472,325.33,410.27,400.07,398,396.64,394.62,394.94Z" transform="translate(61.95 83.99)"/><path class="cls-5" d="M295.38,258a181.49,181.49,0,0,1-19.32,51.43c-20.18,35.74-47.2,54.17-40.93,68.19C237,381.62,241.3,383.4,250,387c20,8.17,30.9,4.45,65,6.26,21.94,1.16,28.38,3.29,40.69-.79,6.87-2.27,19.69-6.51,21.92-15.65,2.57-10.56-11.64-16.93-21.14-38.35-4.52-10.19-3.26-13.17-7.08-31.8-3.1-15.15-14.32-69.84-31.92-71.06-6.53-.45-13.36,6.51-14.53,7.7A28.43,28.43,0,0,0,295.38,258Z" transform="translate(61.95 83.99)"/><g id="Слой_3" data-name="Слой 3"><path class="cls-5" d="M228.09,430.78a7.11,7.11,0,0,1,0-5.48c-6.85-4-10.56-10.61-9.39-16.43.55-2.77,2-4.46,3.52-6.26,10.14-12.38,7.27-21.5,12.91-25,8.46-5.31,22,10.76,43,18.78,4.13,1.57,29.29,9.55,55.57,1.56,23.88-7.25,31.94-22.71,42.53-17.93,8.53,3.86,11.16,17.47,11.44,24.17A35.41,35.41,0,0,1,383,423a37.9,37.9,0,0,1-6.26,7.82c-11.19,10.22-40.65-4.17-72-6.26C264.47,421.83,233,440.27,228.09,430.78Z" transform="translate(61.95 83.99)"/><path class="cls-5" d="M142.78,380.7c36.45,15.42,54.67,23.14,62.61,29.73C256.72,453.1,236,568.88,217.13,571.65c-17.41,2.56-32.53-91.26-78.26-94.69-18.63-1.4-35.15,12.74-40.7,6.26s11-20,14.09-43.83c4.82-37.16-27.78-62.92-19.56-72C95.6,364.18,102.91,363.82,142.78,380.7Z" transform="translate(61.95 83.99)"/><path class="cls-5" d="M456.16,391.65c-30.15,15.52-45.22,23.28-51.79,29.92C361.92,464.5,379.06,581,394.66,583.8c14.41,2.58,26.91-91.83,64.73-95.29,15.41-1.4,29.08,12.83,33.66,6.3s-9.1-20.16-11.65-44.1c-4-37.39,23-63.32,16.19-72.45C495.18,375,489.14,374.66,456.16,391.65Z" transform="translate(61.95 83.99)"/></g><g id="язык"><path class="cls-6" d="M274.26,505.13c6.2-3.19,12.33,7,30.52,11.74,5.59,1.46,18.68,4.87,25.83-1.57,4.86-4.37,5.28-11.79,5.48-11.73s-6.29,13.07-3.92,27.39c1.3,7.79,3.83,7.51,6.26,18A75.28,75.28,0,0,1,340,571.65c-.54,8.61-2.2,14.77-3.91,21.13-2.06,7.64-4.23,15.7-9.39,25.05-3.94,7.12-6.13,8.69-9.4,16.43-2.86,6.79-4.34,10.29-3.91,14.87.93,9.86,9.64,13.73,7.83,18s-10.67,1-14.87,6.26c-5.07,6.34,3.08,17-.78,20.35s-15.82-2.68-23.48-11c-4.36-4.7-6.56-9.92-11-20.35-3.83-9.06-6.11-14.6-7-22.69a58.78,58.78,0,0,1,.78-18.78c1.58-7.2,3.34-7.92,7.83-18.79,5.53-13.4,8.29-20.1,7-28.17-.42-2.7-2.37-7.28-6.26-16.43-4.44-10.45-5.31-10.59-6.26-14.87-1.68-7.51-.5-13.67.78-20.35C270,512,271,506.82,274.26,505.13Z" transform="translate(61.95 83.99)"/></g></g><g id="ГЛАЗА"><path class="cls-7" d="M382.05,374.27c-3.49-5.38,7.62-20.48,19.73-29.29,18-13.09,44-16.52,47.35-9.76s-16.2,25.52-36.08,34.46C403.5,374,385.6,379.75,382.05,374.27Z" transform="translate(61.95 83.99)"/><path d="M382,377.57c-3.23-4.9,7.06-18.61,18.26-26.61,16.66-11.9,40.72-15,43.83-8.87s-15,23.18-33.39,31.3C401.85,377.29,385.29,382.55,382,377.57Z" transform="translate(61.95 83.99)"/><path class="cls-7" d="M231.34,367.78c3.33-5.1-7.27-19.38-18.81-27.71-17.16-12.38-41.95-15.63-45.15-9.24s15.44,24.15,34.4,32.6C210.89,367.5,228,373,231.34,367.78Z" transform="translate(61.95 83.99)"/><path d="M234.51,375.45c3.33-5.1-7.27-19.38-18.81-27.71-17.16-12.39-41.95-15.63-45.15-9.24S186,362.65,205,371.1C214.06,375.16,231.13,380.63,234.51,375.45Z" transform="translate(61.95 83.99)"/><path class="cls-8" d="M189.64,348.75c-2.7,3.07.24,9.85,6.09,12.3,9.24,3.88,21.7-4.71,20.91-8.73C215.67,347.46,194.17,343.63,189.64,348.75Z" transform="translate(61.95 83.99)"/><path class="cls-8" d="M399.92,351.58c-2.71,3.32.24,10.67,6.08,13.33,9.24,4.21,21.71-5.11,20.91-9.47C426,350.17,404.44,346,399.92,351.58Z" transform="translate(61.95 83.99)"/></g></svg>