<svg xmlns="http://www.w3.org/2000/svg" viewBox="0 0 629.73 918.47"><defs><style>.cls-1{fill:#876f85;}.cls-2{fill:#b5a5b4;}.cls-3{fill:#3f1b3f;}.cls-4{fill:#fff;}.cls-5{fill:#1c101b;}</style></defs><g id="Слой_1" data-name="Слой 1"><path class="cls-1" d="M407.5,876.5c-27.38-44-25.06-57-43-68-11.24-6.91-22.16-7.94-44-10-33.8-3.19-40.81,5.11-56-1-6.9-2.77-17.81-9.46-38-58-16.61-39.94-24.92-59.91-28-88-2.14-19.51-6.3-62.31,15-109,25.51-55.93,71.52-82.3,89-92,52.15-28.93,100.45-28,149-27s107.63,2.14,164,41c18.75,12.93,57.84,39.87,70,88,3.8,15.06,10.59,41.91,0,69-3.83,9.8-10.41,20.86-17,43-4.85,16.29-5.29,23.76-4,31,1.52,8.51,4.1,9.22,7,23,1.77,8.39,1.47,11.26,4,21a113.6,113.6,0,0,0,5,15c3,7.4,4.64,11.16,8,14,5,4.24,8.17,2.42,11,6s1.5,7.37,0,19c0,0-1.5,11.62-2,25-.42,11.11-1.63,17.37,1,20l9,9c1.58,1.58,19,8.72,18,10s2.84-2,6,13c1.54,7.32-.21,15.08-2,23-1.18,5.23-2,8.72-4,13-3.23,6.82-7.11,10.35-22,24l-12,11c-14.41,8.88-24.24.58-50,5-13.8,2.37-13.92,5.25-26,6-11.37.7-18.6-1.4-31-4-18.6-3.9-12.69-1.34-45-7-19.87-3.48-34.72-6.09-54-11-26-6.63-39.23-10.11-50-18C425.44,905.13,419.33,895.49,407.5,876.5Z" transform="translate(-102.36 -34.16)"/></g><g id="Слой_3" data-name="Слой 3"><path class="cls-2" d="M650.5,780.5c-9.37-1.47-15.81-17.48-17-30-1.73-18.23,6.56-40.9,18-42,7.11-.68,14.74,7,18,14,5.12,11-2,17.07,3,29,4.49,10.79,13.61,13.75,12,18-1.19,3.14-6.32,2-19,6C654.94,778.87,654.19,781.08,650.5,780.5Z" transform="translate(-102.36 -34.16)"/><path class="cls-3" d="M645.5,781.5c-9.37-1.47-15.81-17.48-17-30-1.73-18.23,6.56-40.9,18-42,7.11-.68,14.74,7,18,14,5.12,11-2,17.07,3,29,4.49,10.79,13.61,13.75,12,18-1.19,3.14-6.32,2-19,6C649.94,779.87,649.19,782.08,645.5,781.5Z" transform="translate(-102.36 -34.16)"/><path class="cls-2" d="M658.5,688.5c-4.18-.75-4.46-22.57-3-29,.92-4,5.19-23.48,12-40,3.44-8.35,16.14-27.66,20-26C695.45,596.92,667.36,690.09,658.5,688.5Z" transform="translate(-102.36 -34.16)"/><path class="cls-3" d="M653.5,690.5c-4.18-.75-4.46-22.57-3-29,.92-4,5.19-23.48,12-40,3.44-8.35,16.14-27.66,20-26C690.45,598.92,662.36,692.09,653.5,690.5Z" transform="translate(-102.36 -34.16)"/><path class="cls-3" d="M697.5,802.5c-6.27-6.85-25.26,5.92-49,11s-42.16.23-73-8c-21.18-5.65-47.79-18.77-101-45C455,750.87,435.06,742,415.63,732.12,393.67,721,382,714.44,380.5,716.5c-1.35,1.86,6.61,9.39,37,39,30.65,29.86,29.62,29.09,33,32a354.1,354.1,0,0,0,57,40c15.14,8.54,26.32,13.37,44,21,21.52,9.29,41.33,17.85,68,25,35.71,9.58,55.25,14.52,75,5,13.52-6.51,27.86-17.5,26-24-.56-2-3.7-4-10-8-8.61-5.52-10-5-12-7C689.34,830.74,704.1,809.71,697.5,802.5Z" transform="translate(-102.36 -34.16)"/><path class="cls-4" d="M264.5,621.5c-7.61-38.48-11.42-57.73-7-75,10.32-40.37,59.53-59.75,83-69,76.48-30.13,151.07-11.33,151-9-.05,1.62-36.08-2.19-93,9-58.62,11.52-76.24,26.53-85,36-11.38,12.29-16.13,24.23-24,44-5.09,12.77-17.11,43.87-15,83,.74,13.8,3,24.8,2,25C275,665.8,268.68,642.63,264.5,621.5Z" transform="translate(-102.36 -34.16)"/></g><g id="Слой_2" data-name="Слой 2"><path class="cls-2" d="M626.5,649.5c-5.3-13.29-11.31-28.34-24-44s-29-35.8-55-38c-3.08-.26-28.33-2-44,15-17.55,19.07-10.84,48.43-5,74,6.32,27.67,16.91,74,51,83,24.88,6.55,48.58-10.41,55-15,6.19-4.42,28.64-20.49,30-45C635,670.76,632.16,663.68,626.5,649.5Z" transform="translate(-102.36 -34.16)"/><path class="cls-3" d="M614.5,656.5c-5.3-13.29-11.31-28.34-24-44s-29-35.8-55-38c-3.08-.26-28.33-2-44,15-17.55,19.07-10.84,48.43-5,74,6.32,27.67,16.91,74,51,83,24.88,6.55,48.58-10.41,55-15,6.19-4.42,28.64-20.49,30-45C623,677.76,620.16,670.68,614.5,656.5Z" transform="translate(-102.36 -34.16)"/></g><g id="Слой_4" data-name="Слой 4"><g id="Слой_6" data-name="Слой 6"><ellipse class="cls-5" cx="389.79" cy="420.31" rx="275.61" ry="48.16" transform="translate(-209.03 99.57) rotate(-17.16)"/></g><path class="cls-5" d="M220,458c-10.13-14.82,29.44-42.3,32-90,.48-9,.42-33-36-88C154.5,187.07,95.54,166.1,103,132c4-18.06,23.75-27.06,61.21-44.08C175,83,205.54,69.93,299.28,58.33c87.41-10.83,81.83-2,120.73-12.75,28.34-7.8,46.48-16.65,57-7.58,12.37,10.67,2.69,36.24-4,72-2.59,13.85-15.54,83.14-3,136,18.28,77,85.43,96.93,74,131-5,15.06-33.1,23.58-89,40-57.66,16.94-65,13.84-154,33C247.45,461.53,226.64,467.71,220,458Z" transform="translate(-102.36 -34.16)"/><g id="Слой_5" data-name="Слой 5"><path class="cls-4" d="M263,417c-5.64-7.27,18.17-24.17,23-51,4.72-26.23-11.11-48.52-41-88-71.39-94.29-88.63-109.19-85-114,7.26-9.61,92.13,29,146,103,32.9,45.21,31.44,72.33,30,83-.31,2.3-6,39.85-37,59C286.37,416.79,267.5,422.8,263,417Z" transform="translate(-102.36 -34.16)"/></g></g></svg>