<svg xmlns="http://www.w3.org/2000/svg" viewBox="0 0 671.65 1032.14"><defs><style>.cls-1,.cls-2{fill:#fff;stroke:#500035;stroke-miterlimit:10;}.cls-1{stroke-width:50px;}.cls-2{stroke-width:36px;}</style></defs><g id="Слой_1" data-name="Слой 1"><path class="cls-1" d="M330.73,1456.56l162.73,61.57a42.16,42.16,0,0,0,49-14.57l337.18-461.9a42.15,42.15,0,0,0,8-27.19L870.82,710.32a42.18,42.18,0,0,0-22.42-35L674.53,583.6a42.18,42.18,0,0,0-41.41,1.15L366.38,745.15A42.17,42.17,0,0,0,346,778.48l-42.45,635.84A42.17,42.17,0,0,0,330.73,1456.56Z" transform="translate(-241.09 -513.73)"/><path class="cls-1" d="M315.23,1420.45,430.31,1464a76.06,76.06,0,0,0,88.35-26.3l314.83-431.26A76.12,76.12,0,0,0,848,957.38L832.88,684.47a76.09,76.09,0,0,0-40.44-63.06l-140-73.89a76,76,0,0,0-74.7,2.09L342.55,691a76.09,76.09,0,0,0-36.7,60.12l-39.59,593.1A76,76,0,0,0,315.23,1420.45Z" transform="translate(-241.09 -513.73)"/></g><g id="Слой_2" data-name="Слой 2"><path class="cls-2" d="M437,769c3-6,11.92-47.37,45-74,36.75-29.59,109-54.48,165-15,37.47,26.4,55.5,71.71,53,112-2.55,41.12-25.87,69.92-32.5,77.88-13.78,16.55-29.28,27-35.49,31.15-5.24,3.49-17.26,11.09-40,20-49.07,19.15-57.83,9-74,23-3.81,3.29-9.25,9-27,69-10.12,34.23-17.47,59.08-15,60,2.75,1,20.48-26.55,30-61,5.53-20,5.54-32.39,17-48a80.81,80.81,0,0,1,23-21c20.27-12.25,37-9.45,54-12,57.94-8.69,93.19-75.44,99-87,4.86-9.68,13.88-28.07,16-54a138.4,138.4,0,0,0-11-66c-4.25-9.79-14-31.52-37-50-22.3-17.9-44.75-22.86-55-25-26.47-5.53-47.41-1.77-62,1a178.77,178.77,0,0,0-65,26,151.57,151.57,0,0,0-31,27,134.22,134.22,0,0,0-19,29c-5.1,10.8-7.4,26.2-12,57-1.14,7.65-2,14.33,2,20,3.64,5.14,1-8.74,4-16,7-17,12.2-41.11,12-46" transform="translate(-241.09 -513.73)"/><path class="cls-2" d="M1385,776" transform="translate(-241.09 -513.73)"/></g><g id="Слой_3" data-name="Слой 3"><circle class="cls-1" cx="220.1" cy="722.33" r="32.43"/><ellipse class="cls-1" cx="216.29" cy="726.01" rx="18.62" ry="18.74"/></g></svg>