<svg id="Слой_1" data-name="Слой 1" xmlns="http://www.w3.org/2000/svg" viewBox="0 0 55.98 42.57"><defs><style>.cls-1{fill:#fff;stroke:#500035;stroke-miterlimit:10;stroke-width:3px;}.cls-2{fill:#500035;fill-rule:evenodd;}</style></defs><path class="cls-1" d="M29,46l7.5,20.5" transform="translate(-23.23 -35.03)"/><path class="cls-1" d="M24,57l12.5-7.5" transform="translate(-23.23 -35.03)"/><path class="cls-1" d="M74,42q-4.75,11.74-9.5,23.5" transform="translate(-23.23 -35.03)"/><path class="cls-1" d="M63.5,46.5l15,8" transform="translate(-23.23 -35.03)"/><path class="cls-1" d="M27.5,77.5c.07-1,.61-7.42,6-11a10.68,10.68,0,0,1,7-2c4.63.53,8.7,4.94,10,11" transform="translate(-23.23 -35.03)"/><path class="cls-1" d="M55.5,74.5a10.51,10.51,0,0,1,4-8,9.57,9.57,0,0,1,10-1,9.43,9.43,0,0,1,5,9" transform="translate(-23.23 -35.03)"/><path class="cls-2" d="M59.67,37.32a8,8,0,0,0-10.93-.24,8,8,0,0,0-10.93.24,7.79,7.79,0,0,0,0,11.12L47,57.51a2.52,2.52,0,0,0,3.54,0l9.16-9.07A7.79,7.79,0,0,0,59.67,37.32Zm-1.18,10-9.16,9.07a.85.85,0,0,1-1.18,0L39,47.27a6.16,6.16,0,0,1,0-8.78,6.29,6.29,0,0,1,8.63-.18l1.12,1,1.12-1a6.29,6.29,0,0,1,8.63.18A6.16,6.16,0,0,1,58.49,47.27Z" transform="translate(-23.23 -35.03)"/></svg>