<svg xmlns="http://www.w3.org/2000/svg" viewBox="0 0 924.05 811.3"><defs><style>.cls-1{fill:#994899;}.cls-1,.cls-2,.cls-3,.cls-4{stroke:#fff;stroke-miterlimit:10;}.cls-2{fill:#a291a3;}.cls-3{fill:#070507;}.cls-4{fill:#c197bf;}.cls-5{fill:#543753;}</style></defs><g id="Слой_2" data-name="Слой 2"><path class="cls-1" d="M1042.5,518.5" transform="translate(7.05 -186.72)"/><path class="cls-2" d="M246.5,713.5c-47.6-42.61-93.77-83.93-95-143-1.5-71.93,64.6-124.27,126.63-173.38,50.06-39.65,90.12-59.24,296.61-140.64,172.4-68,210.57-80.35,229.76-61,26.22,26.48-1.33,93.79-36.84,180.56-29.11,71.11-61.6,123.85-115.89,212-39,63.27-40.9,60.74-75.3,118.74-50,84.24-48.45,93.79-67,104.74C436,855,306.05,766.8,246.5,713.5Z" transform="translate(7.05 -186.72)"/><path class="cls-3" d="M29.5,850.5c11-6.43,57.78-33.72,65-25,6.76,8.17-32.34,34.36-26,61,6.48,27.24,57.43,42.11,97,42,51.82-.15,89.23-26,92-21,3.89,7-74.37,50.37-69,63,5.6,13.17,99.41-13.37,137-24,67.81-19.18,114.92-37.66,117-33,2.7,6-76.06,38.1-72,52,4.29,14.68,102.48,14.38,193-27,51.38-23.49,91.63-56.25,98-49,7.19,8.18-40.28,54.13-31,66s57.66-34.34,127-27c24,2.54,33,9.64,59,7,13.39-1.36,19.87-4.14,65-16,19.6-5.15,35-9,35-9s-96.74,13.25-213,53c-52.16,17.83-102.33,39-113,24-8.44-11.84,14.81-36.47,7-45-9.92-10.85-51.64,24.4-117,43-57.66,16.4-123.36,16.9-132-4-4.42-10.69,8.67-20.76,4-27-10.17-13.6-71.82,34.93-155,37-36.61.91-75.22-7.23-76-17-1.11-14,74.83-32,74-35s-79.19,33.66-121,2c-18.51-14-33.08-43.87-26-66,4.26-13.32,15.1-19.87,13-23-4.94-7.38-66.08,27.33-68,24C-7.56,874.67,9.77,862,29.5,850.5Z" transform="translate(7.05 -186.72)"/><path class="cls-3" d="M1144.5,367.5" transform="translate(7.05 -186.72)"/></g><g id="Слой_1" data-name="Слой 1"><path class="cls-4" d="M260,645.35c-8.89-4.59-15.43,3.24-29.15,1.45a32.33,32.33,0,0,1-16.46-6.93c-7.13-5.94-9.41-13.72-11-19-1.29-4.42-3.39-11.93-1.44-21.08,2-9.57,8.67-21.62,15.59-21.36,4.26.17,8,5,7.5,5.78-.36.62-3.16-1.53-6.35-.58-3.35,1-6.43,5.23-5.48,8.66.83,3,4.42,4.18,6.64,4.91,5.54,1.82,14.68,1.82,17.61-3.47,1.69-3.06.6-6.64-.29-9.52-.43-1.38-2-6-8.66-12.42-6.33-6.08-10.79-10.36-17.61-10.68-5.73-.27-10,2.39-12.7,4-1.86,1.15-11.67,7.21-11.26,14.73.35,6.36,7.78,9.3,6.64,11.54s-8.74,1.73-13.86-2.31c-4.17-3.3-5.33-8-6.06-11a28.78,28.78,0,0,1,.87-15.87A33.85,33.85,0,0,1,184,547.5c5.62-5.08,11.36-6.81,15.59-8.09,3.76-1.13,9.32-2.81,16.17-2,11.15,1.29,18,8.21,19.34,6.64.79-.91-1.08-3.77-3.47-7.21-7.77-11.25-11.5-17-14.43-19.35C209,510.78,196.66,507,194.42,510c-2,2.63,3.37,11.31,6.93,11,2.22-.21,3.24-3.84,4.62-3.47,1.12.31,1.74,3,1.16,5.2-1.17,4.31-7,6-8.95,6.64-7.06,2.12-18.93,1.89-21.94-4.33-3.48-7.18,7-17.9,10.39-21.36,4.46-4.57,16.87-17.84,29.73-15.3,9.13,1.8,7.46,9.35,24.83,24,10.51,8.84,16.17,10.32,18.18,17.61,1.45,5.24-.61,7.64-2.88,18.76-2.12,10.35-4,19.52-2.31,29.73,2.5,15.16,11.69,25.47,15,28.87,5.83,6,7.09,4.45,11,9,11.61,13.46,7.31,35.18,5.19,45.9-3.11,15.73-9.65,26.36-14.37,34-4.81,7.82-10.51,15.09-11.61,14.47-1.34-.76,6-12.48,9.53-31.75,2.91-15.68.8-22.57-2.31-27.14A17.88,17.88,0,0,0,260,645.35Z" transform="translate(7.05 -186.72)"/><path class="cls-4" d="M334,577.35c-8.89-4.59-15.43,3.24-29.15,1.45a32.33,32.33,0,0,1-16.46-6.93c-7.13-5.94-9.41-13.72-11-19-1.29-4.42-3.39-11.93-1.44-21.08,2-9.57,8.67-21.62,15.59-21.36,4.26.17,8,5,7.5,5.78-.36.62-3.16-1.53-6.35-.58-3.35,1-6.43,5.23-5.48,8.66.83,3,4.42,4.18,6.64,4.91,5.54,1.82,14.68,1.82,17.61-3.47,1.69-3.06.6-6.64-.29-9.52-.43-1.38-2-6-8.66-12.42-6.33-6.08-10.79-10.36-17.61-10.68-5.73-.27-10,2.39-12.7,4-1.86,1.15-11.67,7.21-11.26,14.73.35,6.36,7.78,9.3,6.64,11.54s-8.74,1.73-13.86-2.31c-4.17-3.3-5.33-8-6.06-11a28.78,28.78,0,0,1,.87-15.87A33.85,33.85,0,0,1,258,479.5c5.62-5.08,11.36-6.81,15.59-8.09,3.76-1.13,9.32-2.81,16.17-2,11.15,1.29,18,8.21,19.34,6.64.79-.91-1.08-3.77-3.47-7.21-7.77-11.25-11.5-17-14.43-19.35C283,442.78,270.66,439,268.42,442c-2,2.63,3.37,11.31,6.93,11,2.22-.21,3.24-3.84,4.62-3.47,1.12.31,1.74,3,1.16,5.2-1.17,4.31-7,6-8.95,6.64-7.06,2.12-18.93,1.89-21.94-4.33-3.48-7.18,7-17.9,10.39-21.36,4.46-4.57,16.87-17.84,29.73-15.3,9.13,1.8,7.46,9.35,24.83,24,10.51,8.84,16.17,10.32,18.18,17.61,1.45,5.24-.61,7.64-2.88,18.76-2.12,10.35-4,19.52-2.31,29.73,2.5,15.16,11.69,25.47,15,28.87,5.83,6,7.09,4.45,11,9,11.61,13.46,7.31,35.18,5.19,45.9-3.11,15.73-9.65,26.36-14.37,34-4.81,7.82-10.51,15.09-11.61,14.47-1.34-.76,6-12.48,9.53-31.75,2.91-15.68.8-22.57-2.31-27.14A17.88,17.88,0,0,0,334,577.35Z" transform="translate(7.05 -186.72)"/><path class="cls-4" d="M405,514.35c-8.89-4.59-15.43,3.24-29.15,1.45a32.33,32.33,0,0,1-16.46-6.93c-7.13-5.94-9.41-13.72-11-19.05-1.29-4.42-3.39-11.93-1.44-21.08,2-9.57,8.67-21.62,15.59-21.36,4.26.17,8,5,7.5,5.78-.36.62-3.16-1.53-6.35-.58-3.35,1-6.43,5.23-5.48,8.66.83,3,4.42,4.18,6.64,4.91,5.54,1.82,14.68,1.82,17.61-3.47,1.69-3.06.6-6.64-.29-9.52-.43-1.38-2-6-8.66-12.42-6.33-6.08-10.79-10.36-17.61-10.68-5.73-.27-10,2.39-12.7,4-1.86,1.15-11.67,7.21-11.26,14.73.35,6.36,7.78,9.3,6.64,11.54s-8.74,1.73-13.86-2.31c-4.17-3.3-5.33-8-6.06-11a28.78,28.78,0,0,1,.87-15.87A33.85,33.85,0,0,1,329,416.5c5.62-5.08,11.36-6.81,15.59-8.09,3.76-1.13,9.32-2.81,16.17-2,11.15,1.29,18,8.21,19.34,6.64.79-.91-1.08-3.77-3.47-7.21-7.77-11.25-11.5-17-14.43-19.35C354,379.78,341.66,376,339.42,379c-2,2.63,3.37,11.31,6.93,11,2.22-.21,3.24-3.84,4.62-3.47,1.12.31,1.74,3,1.16,5.2-1.17,4.31-7,6-8.95,6.64-7.06,2.12-18.93,1.89-21.94-4.33-3.48-7.18,7-17.9,10.39-21.36,4.46-4.57,16.87-17.84,29.73-15.3,9.13,1.8,7.46,9.35,24.83,24,10.51,8.84,16.17,10.32,18.18,17.61,1.45,5.24-.61,7.64-2.88,18.76-2.12,10.35-4,19.52-2.31,29.73,2.5,15.16,11.69,25.47,15,28.87,5.83,6,7.09,4.45,11,8.95,11.61,13.46,7.31,35.18,5.19,45.9-3.11,15.73-9.65,26.36-14.37,34-4.81,7.82-10.51,15.09-11.61,14.47-1.34-.76,6-12.48,9.53-31.75,2.91-15.68.8-22.57-2.31-27.14A17.88,17.88,0,0,0,405,514.35Z" transform="translate(7.05 -186.72)"/><path class="cls-4" d="M483,440.35c-8.89-4.59-15.43,3.24-29.15,1.45a32.33,32.33,0,0,1-16.46-6.93c-7.13-5.94-9.41-13.72-11-19.05-1.29-4.42-3.39-11.93-1.44-21.08,2-9.57,8.67-21.62,15.59-21.36,4.26.17,8,5,7.5,5.78-.36.62-3.16-1.53-6.35-.58-3.35,1-6.43,5.23-5.48,8.66.83,3,4.42,4.18,6.64,4.91,5.54,1.82,14.68,1.82,17.61-3.47,1.69-3.06.6-6.64-.29-9.52-.43-1.38-2-6-8.66-12.42-6.33-6.08-10.79-10.36-17.61-10.68-5.73-.27-10,2.39-12.7,4-1.86,1.15-11.67,7.21-11.26,14.73.35,6.36,7.78,9.3,6.64,11.54s-8.74,1.73-13.86-2.31c-4.17-3.3-5.33-8-6.06-11a28.78,28.78,0,0,1,.87-15.87A33.85,33.85,0,0,1,407,342.5c5.62-5.08,11.36-6.81,15.59-8.09,3.76-1.13,9.32-2.81,16.17-2,11.15,1.29,18,8.21,19.34,6.64.79-.91-1.08-3.77-3.47-7.21-7.77-11.25-11.5-17-14.43-19.35C432,305.78,419.66,302,417.42,305c-2,2.63,3.37,11.31,6.93,11,2.22-.21,3.24-3.84,4.62-3.47,1.12.31,1.74,3,1.16,5.2-1.17,4.31-7,6-8.95,6.64-7.06,2.12-18.93,1.89-21.94-4.33-3.48-7.18,7-17.9,10.39-21.36,4.46-4.57,16.87-17.84,29.73-15.3,9.13,1.8,7.46,9.35,24.83,24,10.51,8.84,16.17,10.32,18.18,17.61,1.45,5.24-.61,7.64-2.88,18.76-2.12,10.35-4,19.52-2.31,29.73,2.5,15.16,11.69,25.47,15,28.87,5.83,6,7.09,4.45,11,8.95,11.61,13.46,7.31,35.18,5.19,45.9-3.11,15.73-9.65,26.36-14.37,34-4.81,7.82-10.51,15.09-11.61,14.47-1.34-.76,6-12.48,9.53-31.75,2.91-15.68.8-22.57-2.31-27.14A17.88,17.88,0,0,0,483,440.35Z" transform="translate(7.05 -186.72)"/><path class="cls-4" d="M562.36,393.85c-6.73-9.81-17.93-6.26-31.29-16.32-2.23-1.69-9.46-7.26-13.34-16.64-4.16-10-2.2-18.88-.86-24.94,1.11-5,3.1-13.51,10.23-21.1,7.47-7.94,21.13-15.48,28.21-11,4.37,2.75,5.55,9.62,4.63,10.1-.72.38-2.46-3.39-6.32-4.41-4.07-1.08-9.64,1.12-10.56,5-.8,3.38,2.29,6.69,4.21,8.74,4.78,5.11,14.34,10.66,20.34,7.37,3.49-1.91,4.33-6,5-9.32.32-1.57,1.26-7-2.14-17.17-3.23-9.68-5.5-16.48-12.46-20.94-5.84-3.73-11.82-3.79-15.54-3.83-2.58,0-16.22-.17-20,7.29-3.18,6.31,3,13.64.51,15.11s-10.11-3.65-13.21-10.63c-2.53-5.71-1.11-10.93-.22-14.21a29.52,29.52,0,0,1,9.75-14.71,37.32,37.32,0,0,1,18.16-8.34c8.71-1.46,15.68.37,20.81,1.71,4.57,1.2,11.31,3,18,7.88,10.94,8,14.22,18.79,16.52,18.12,1.34-.39,1-4.28.4-9-1.86-15.51-2.57-23.27-4.31-27.32-4.93-11.45-15.68-22.54-19.67-21.05-3.54,1.32-2.78,12.89,1.13,14.73,2.43,1.14,5.53-1.72,6.76-.52,1,1,.14,4-1.68,5.69-3.62,3.42-10.64,1.57-13.06.93-8.56-2.25-20.85-9.68-20.53-17.47.37-9,17.3-12.92,22.77-14.19,7.21-1.67,27.58-6.87,39.62,3.38,8.53,7.27,2.58,13.5,12.6,38.06,6.07,14.88,11.17,19.73,9.21,27.94-1.41,5.91-4.9,7-13.47,16.25-8,8.65-15.06,16.31-19,27.13-5.82,16.06-2,31.53-.38,36.81,2.77,9.27,4.93,8.58,6.48,15.25,4.64,20-12,38.2-20.14,47.19-12,13.2-24.79,19.43-34,23.92-9.39,4.58-19.41,8.09-20.2,6.83-1-1.55,13.18-8.36,27.65-24.68,11.78-13.28,13.41-21.17,12.71-27.44A20.79,20.79,0,0,0,562.36,393.85Z" transform="translate(7.05 -186.72)"/><path class="cls-4" d="M290.2,718.87c9.13-9.07,8.3-12,13.83-16.34,13.46-10.66,33.74-5.58,35.82-5,14.25,3.78,15.49,11.59,32.68,24.51,9.64,7.25,37.1,27.88,62.86,22,17.63-4,28.11-19,30.16-17,1.6,1.59-4.37,11.08-11.31,18.23-4.58,4.71-22,22.69-40.85,19.48-6.63-1.13-10.56-4.39-28.91-8.8-3.76-.9-7.64-1.73-8.18-.63-.89,1.84,8.39,7,17.6,15.72,7.7,7.27,12.65,11.86,15.72,19.48,1.59,4,5.2,12.93,1.25,21.37s-12.91,11.17-19.48,13.2c-5,1.55-23.06,7.13-33.31-3.14-5.82-5.84-6.24-13.88-6.29-15.09a22,22,0,0,1,4.4-14.45c.84-1.07,7.28-9.52,15.72-8.17,7.55,1.21,12.22,9.57,11.31,10.68s-6.34-4.78-12.57-3.14c-3.93,1-7.73,4.92-7.54,8.8.24,5.23,7.62,8.34,12.57,8.8,8.17.76,13.55-5.33,13.82-5.66,1-1.17,4.94-6.13,3.77-11.94-1.52-7.63-10.65-11-13.19-11.94-13.53-5-21.22,3.41-27-1.26-7.22-5.81,2.91-20.23-5.66-33.31-4.12-6.31-12.33-11.91-18.22-10.06-8.62,2.71-6.71,19.62-14.46,21.37-5.11,1.15-12.13-4.81-14.46-11.31-3.24-9.09,3.73-16.31.63-19.49-4.8-4.93-25.51,8.41-26.4,6.92C274,731.79,281.73,727.28,290.2,718.87Z" transform="translate(7.05 -186.72)"/><path class="cls-4" d="M367.2,644.87c9.13-9.07,8.3-12,13.83-16.34,13.46-10.66,33.74-5.58,35.82-5,14.25,3.78,15.49,11.59,32.68,24.51,9.64,7.25,37.1,27.88,62.86,22,17.63-4,28.11-19,30.16-17,1.6,1.59-4.37,11.08-11.31,18.23-4.58,4.71-22,22.69-40.85,19.48-6.63-1.13-10.56-4.39-28.91-8.8-3.76-.9-7.64-1.73-8.18-.63-.89,1.84,8.39,7,17.6,15.72,7.7,7.27,12.65,11.86,15.72,19.48,1.59,4,5.2,12.93,1.25,21.37s-12.91,11.17-19.48,13.2c-5,1.55-23.06,7.13-33.31-3.14-5.82-5.84-6.24-13.88-6.29-15.09a22,22,0,0,1,4.4-14.45c.84-1.07,7.28-9.52,15.72-8.17,7.55,1.21,12.22,9.57,11.31,10.68s-6.34-4.78-12.57-3.14c-3.93,1-7.73,4.92-7.54,8.8.24,5.23,7.62,8.34,12.57,8.8,8.17.76,13.55-5.33,13.82-5.66,1-1.17,4.94-6.13,3.77-11.94-1.52-7.63-10.65-11-13.19-11.94-13.53-5-21.22,3.41-27-1.26-7.22-5.81,2.91-20.23-5.66-33.31-4.12-6.31-12.33-11.91-18.22-10.06-8.62,2.71-6.71,19.62-14.46,21.37-5.11,1.15-12.13-4.81-14.46-11.31-3.24-9.09,3.73-16.31.63-19.49-4.8-4.93-25.51,8.41-26.4,6.92C351,657.79,358.73,653.28,367.2,644.87Z" transform="translate(7.05 -186.72)"/><path class="cls-4" d="M439.2,572.87c9.13-9.07,8.3-12,13.83-16.34,13.46-10.66,33.74-5.58,35.82-5,14.25,3.78,15.49,11.59,32.68,24.51,9.64,7.25,37.1,27.88,62.86,22,17.63-4,28.11-19,30.16-17,1.6,1.59-4.37,11.08-11.31,18.23-4.58,4.71-22,22.69-40.85,19.48-6.63-1.13-10.56-4.39-28.91-8.8-3.76-.9-7.64-1.73-8.18-.63-.89,1.84,8.39,7,17.6,15.72,7.7,7.27,12.65,11.86,15.72,19.48,1.59,4,5.2,12.93,1.25,21.37s-12.91,11.17-19.48,13.2c-5,1.55-23.06,7.13-33.31-3.14-5.82-5.84-6.24-13.88-6.29-15.09a22,22,0,0,1,4.4-14.45c.84-1.07,7.28-9.52,15.72-8.17,7.55,1.21,12.22,9.57,11.31,10.68s-6.34-4.78-12.57-3.14c-3.93,1-7.73,4.92-7.54,8.8.24,5.23,7.62,8.34,12.57,8.8,8.17.76,13.55-5.33,13.82-5.66,1-1.17,4.94-6.13,3.77-11.94-1.52-7.63-10.65-11-13.19-11.94-13.53-5-21.22,3.41-27-1.26-7.22-5.81,2.91-20.23-5.66-33.31-4.12-6.31-12.33-11.91-18.22-10.06-8.62,2.71-6.71,19.62-14.46,21.37-5.11,1.15-12.13-4.81-14.46-11.31-3.24-9.09,3.73-16.31.63-19.49-4.8-4.93-25.51,8.41-26.4,6.92C423,585.79,430.73,581.28,439.2,572.87Z" transform="translate(7.05 -186.72)"/><path class="cls-4" d="M505.2,505.87c9.13-9.07,8.3-12,13.83-16.34,13.46-10.66,33.74-5.58,35.82-5,14.25,3.78,15.49,11.59,32.68,24.51,9.64,7.25,37.1,27.88,62.86,22,17.63-4,28.11-19,30.16-17,1.6,1.59-4.37,11.08-11.31,18.23-4.58,4.71-22,22.69-40.85,19.48-6.63-1.13-10.56-4.39-28.91-8.8-3.76-.9-7.64-1.73-8.18-.63-.89,1.84,8.39,7,17.6,15.72,7.7,7.27,12.65,11.86,15.72,19.48,1.59,4,5.2,12.93,1.25,21.37s-12.91,11.17-19.48,13.2c-5,1.55-23.06,7.13-33.31-3.14-5.82-5.84-6.24-13.88-6.29-15.09a22,22,0,0,1,4.4-14.45c.84-1.07,7.28-9.52,15.72-8.17,7.55,1.21,12.22,9.57,11.31,10.68s-6.34-4.78-12.57-3.14c-3.93,1-7.73,4.92-7.54,8.8.24,5.23,7.62,8.34,12.57,8.8,8.17.76,13.55-5.33,13.82-5.66,1-1.17,4.94-6.13,3.77-11.94-1.52-7.63-10.65-11-13.19-11.94-13.53-5-21.22,3.41-27-1.26-7.22-5.81,2.91-20.23-5.66-33.31-4.12-6.31-12.33-11.91-18.22-10.06-8.62,2.71-6.71,19.62-14.46,21.37-5.11,1.15-12.13-4.81-14.46-11.31-3.24-9.09,3.73-16.31.63-19.49-4.8-4.93-25.51,8.41-26.4,6.92C489,518.79,496.73,514.28,505.2,505.87Z" transform="translate(7.05 -186.72)"/><path class="cls-4" d="M591.34,460.5c5.53-11.63,3.77-14.07,7.48-20.06,9-14.59,29.85-16.68,32-16.87,14.69-1.27,18.5,5.66,39.06,12,11.52,3.55,44.34,13.66,66.58-.6,15.23-9.76,20-27.41,22.64-26.19,2,1-.37,11.91-4.47,21-2.71,6-13,28.81-31.84,32.18-6.61,1.18-11.42-.55-30.18,1.52-3.84.42-7.77.95-7.9,2.17-.22,2,10.27,3.75,21.88,8.82,9.71,4.24,15.92,6.88,21.39,13,2.84,3.19,9.27,10.4,8.42,19.68s-8.36,14.88-13.86,19c-4.2,3.17-19.28,14.53-32.4,8.33-7.46-3.52-10.58-10.94-11-12.06a22,22,0,0,1-.76-15.09c.42-1.29,3.63-11.43,12-13,7.52-1.43,14.74,4.86,14.26,6.22s-7.58-2.35-12.89,1.3c-3.35,2.3-5.6,7.24-4.11,10.83,2,4.84,10,5.26,14.8,4,8-2.05,11-9.6,11.1-10,.54-1.44,2.56-7.43-.5-12.51-4-6.66-13.76-6.74-16.47-6.76-14.41-.12-18.8,10.4-25.85,8-8.76-3-4.11-20-16.61-29.42-6-4.54-15.64-7-20.55-3.29-7.19,5.47.33,20.74-6.36,25-4.42,2.81-13.05-.42-17.44-5.75-6.13-7.45-2-16.6-6-18.54-6.19-3-21.16,16.55-22.49,15.45C580.44,478.17,586.22,471.29,591.34,460.5Z" transform="translate(7.05 -186.72)"/><path class="cls-4" d="M634.45,391c-4.27-14.57-7.59-14.95-9.06-23.25-3.6-20.25,12.07-41.11,13.71-43.23,11.21-14.57,19.65-12.42,41.51-26.18,12.26-7.71,47.17-29.68,54.78-61.8,5.2-22-4.25-40.8-1.15-42.21,2.42-1.1,8.75,10.05,12.25,21.24,2.31,7.38,11.11,35.5-1.93,55.56-4.59,7.06-9.89,10.07-23.88,29-2.86,3.89-5.72,7.93-4.9,9.05,1.37,1.87,11.37-6.39,24.86-12.94,11.28-5.49,18.44-9.05,27.63-9.08,4.78,0,15.61-.05,22,8.3s4.38,19.85,3,28.29c-1.08,6.45-4.94,29.6-20.54,36.63a24,24,0,0,1-18.32.31,21.8,21.8,0,0,1-12.11-11.62c-.63-1.44-5.68-12.66.07-21.68,5.15-8.08,15.92-9.6,16.56-8.06s-8.07,5.07-9.7,12.94c-1,5,.86,11.07,4.83,12.63,5.34,2.1,12.29-4.91,15.34-10.36a23.18,23.18,0,0,0,1.59-18.38c-.65-1.68-3.53-8.43-9.93-9.75-8.4-1.74-16.54,7.16-18.81,9.64-12,13.18-7.68,25.81-15.37,30.31-9.57,5.6-18.64-12.54-36.16-8.72-8.44,1.84-18.32,8.67-19.55,16.25-1.8,11.08,16,16.61,13.74,26.26-1.52,6.37-11.13,11.67-18.83,11.36-10.75-.43-14.3-11.68-19.09-9.6-7.43,3.24-4.95,33-6.91,33.32C638.84,415.41,638.4,404.47,634.45,391Z" transform="translate(7.05 -186.72)"/><polygon class="cls-5" points="124.55 672.78 285.55 515.78 533.55 284.78 631.55 216.78 544.55 284.78 421.55 397.78 241.55 566.78 124.55 672.78"/></g></svg>