<svg id="Layer_2" data-name="Layer 2" xmlns="http://www.w3.org/2000/svg" viewBox="0 0 17.41 15.12"><defs><style>.cls-1{fill:#500035;}</style></defs><path class="cls-1" d="M24.7,15.18a.6.6,0,0,1-.34-.11L16.56,9.5,8.75,15.07a.58.58,0,0,1-.68-.94l8.15-5.82a.59.59,0,0,1,.67,0L25,14.13a.58.58,0,0,1-.34,1Z" transform="translate(-7.87 -8.2)"/><path class="cls-1" d="M21.79,23.33H18.88a.58.58,0,0,1-.58-.59V18.67H14.81v4.07a.58.58,0,0,1-.58.59H11.32a1.76,1.76,0,0,1-1.75-1.75V15.76a.59.59,0,0,1,1.17,0v5.82a.58.58,0,0,0,.58.58h2.33V18.09a.58.58,0,0,1,.58-.58h4.65a.59.59,0,0,1,.59.58v4.07h2.32a.58.58,0,0,0,.58-.58V15.76a.59.59,0,0,1,1.17,0v5.82A1.75,1.75,0,0,1,21.79,23.33Z" transform="translate(-7.87 -8.2)"/><path class="cls-1" d="M16.56,12.85a3.44,3.44,0,0,0-3.07,1.92,3.42,3.42,0,0,0,6.15,0A3.45,3.45,0,0,0,16.56,12.85Zm1.52,1a3,3,0,0,1,.9.9,3,3,0,0,1-.9.9,2.83,2.83,0,0,1-1.52.44,2.8,2.8,0,0,1-1.51-.44,3,3,0,0,1-.9-.9,3,3,0,0,1,.9-.9l.07,0a1.55,1.55,0,0,0-.09.53,1.54,1.54,0,1,0,3.07,0,1.55,1.55,0,0,0-.09-.53Zm-1.52.29a.58.58,0,1,1-.57-.58A.58.58,0,0,1,16.56,14.16Z" transform="translate(-7.87 -8.2)"/></svg>