<svg id="Слой_1" data-name="Слой 1" xmlns="http://www.w3.org/2000/svg" viewBox="0 0 46 46"><defs><style>.cls-1{fill:#fff;stroke:#500035;stroke-miterlimit:10;stroke-width:2px;}</style></defs><circle class="cls-1" cx="23" cy="23" r="22"/><ellipse class="cls-1" cx="29.5" cy="17" rx="3.5" ry="5"/><path class="cls-1" d="M38.5,52.5a25,25,0,0,0,12,5,20.78,20.78,0,0,0,13-2,18.75,18.75,0,0,0,5-4" transform="translate(-30.5 -22.5)"/><line class="cls-1" x1="11" y1="29" x2="8" y2="33"/><line class="cls-1" x1="15" y1="32" x2="15" y2="36"/><line class="cls-1" x1="22" y1="33" x2="25" y2="37"/><line class="cls-1" x1="34" y1="29" x2="37" y2="33"/><line class="cls-1" x1="31" y1="31" x2="29" y2="36"/><line class="cls-1" x1="11" y1="15" x2="19" y2="21"/><line class="cls-1" x1="18" y1="14" x2="12" y2="21"/></svg>